# xmcd
#
# Track frame offsets: 
#        150
#        19610
#        32068
#        45851
#        63776
#        79472
#        101573
#        116370
#        134004
#        150632
#        171383
#        187140
#
# Disc length: 2698 seconds
#
# Revision: 0
# Processed by: cddbd v1.5.2PL0 Copyright (c) Steve Scherf et al.
# Submitted via: ExactAudioCopy v0.99pb2
#
DISCID=9a0a880c
DTITLE=Bill Sheffiel - Got A Gig, Gotta Go
DYEAR=2007
DGENRE=
TTITLE0=Three Man Band
TTITLE1=Kalamazoo
TTITLE2=The Great Society
TTITLE3=The Legend Of John Montgomery
TTITLE4=These Four Walls
TTITLE5=1952 Vincent Black Lightning
TTITLE6=Spider
TTITLE7=After The Rapture
TTITLE8=Cabernet Sauvignon
TTITLE9=Anna Lee
TTITLE10=A Greater God
TTITLE11=Got A Gig, Gotta Go
EXTD=
EXTT0=
EXTT1=
EXTT2=
EXTT3=
EXTT4=
EXTT5=
EXTT6=
EXTT7=
EXTT8=
EXTT9=
EXTT10=
EXTT11=
PLAYORDER=
